<svg width="174" height="70" viewBox="0 0 174 70" fill="none" xmlns="http://www.w3.org/2000/svg">
<path d="M25.8409 28.7225C24.8783 28.2558 23.8935 28.0225 22.8717 28.0225H19.762V41.0967H22.4127C23.738 41.0967 24.9005 40.8483 25.9149 40.344C26.9219 39.8472 27.7141 39.102 28.2843 38.1311C28.8544 37.1526 29.1357 35.9859 29.1357 34.6235C29.1357 33.1407 28.8248 31.8988 28.2028 30.9053C27.5883 29.9192 26.8034 29.1891 25.8409 28.7225Z" fill="url(#paint0_linear_1_180)"/>
<path d="M31.9419 8.30957C17.6443 8.30957 6.05664 20.0891 6.05664 34.6235C6.05664 49.158 17.6443 60.9375 31.9419 60.9375C46.2395 60.9375 57.8272 49.158 57.8272 34.6235C57.8272 20.0891 46.2395 8.30957 31.9419 8.30957ZM30.9349 39.659C30.0983 41.0515 28.9728 42.1203 27.5586 42.873C26.1518 43.6257 24.6117 44.002 22.9457 44.002H16.7854V25.1472H22.0572C24.3822 25.1472 26.3073 25.6139 27.8252 26.5472C29.343 27.4805 30.4537 28.6773 31.1497 30.1451C31.8457 31.6128 32.1937 33.1709 32.1937 34.8343C32.1937 36.6633 31.7716 38.2666 30.9349 39.659ZM46.358 41.5332C45.8619 42.3461 45.1511 42.9934 44.2182 43.4752C43.2852 43.9569 42.182 44.1977 40.9085 44.1977C39.7904 44.1977 38.6872 44.0171 37.5988 43.6633C36.5103 43.3096 35.5478 42.8203 34.6963 42.2031L36.0217 39.8472C36.651 40.3289 37.3914 40.7354 38.2503 41.0515C39.1092 41.3676 39.9015 41.5332 40.6345 41.5332C41.5378 41.5332 42.3227 41.3149 43.0039 40.8709C43.6851 40.4343 44.0257 39.7569 44.0257 38.8386C44.0257 38.116 43.7443 37.5063 43.1742 37.0246C42.604 36.5429 41.8118 36.0988 40.79 35.7074C39.7386 35.3085 38.8649 34.9171 38.1689 34.5257C37.4729 34.1343 36.8732 33.5924 36.3771 32.8924C35.8736 32.1924 35.6292 31.3192 35.6292 30.2655C35.6292 28.73 36.1401 27.4881 37.1693 26.5472C38.1985 25.6063 39.5535 25.102 41.2343 25.0343C42.456 25.0343 43.5296 25.1773 44.4551 25.4633C45.3806 25.7494 46.2395 26.1483 47.0392 26.6676L45.9212 28.9709C44.3218 28.1278 42.9076 27.6988 41.6711 27.6988C40.753 27.6988 40.0274 27.9096 39.4943 28.3235C38.9612 28.7375 38.6946 29.3096 38.6946 30.0322C38.6946 30.7397 39.0278 31.3343 39.7016 31.8085C40.3754 32.2827 41.3083 32.7569 42.5152 33.216C43.4333 33.5472 44.2182 33.916 44.8697 34.3451C45.5213 34.7666 46.0618 35.3386 46.4839 36.0687C46.9059 36.7913 47.1206 37.7096 47.1206 38.816C47.091 39.8171 46.8467 40.7278 46.358 41.5332Z" fill="url(#paint1_linear_1_180)"/>
<path d="M65.0834 23.3184H71.3104C74.0574 23.3184 76.3305 23.8678 78.1223 24.9667C79.9142 26.0657 81.2247 27.4883 82.0466 29.2194C82.8685 30.9506 83.2831 32.7947 83.2831 34.7517C83.2831 36.9119 82.787 38.8162 81.7948 40.4571C80.8027 42.0979 79.4699 43.3624 77.8114 44.2506C76.1454 45.1388 74.3314 45.5829 72.3692 45.5829H65.0834V23.3184ZM71.7325 42.1581C73.2948 42.1581 74.672 41.8646 75.8714 41.27C77.0635 40.6754 77.9965 39.8098 78.6702 38.6581C79.344 37.5065 79.6772 36.1291 79.6772 34.5184C79.6772 32.7646 79.3144 31.3044 78.5814 30.1302C77.8484 28.956 76.9154 28.0979 75.7826 27.5485C74.6497 26.999 73.4799 26.7205 72.2804 26.7205H68.6079V42.1581H71.7325Z" fill="#2B2B2B"/>
<path d="M87.7331 26.728C88.133 26.3742 88.5846 26.1936 89.0881 26.1936C89.5694 26.1936 90.0062 26.3742 90.3987 26.728C90.7911 27.0818 90.9836 27.5183 90.9836 28.0302C90.9836 28.542 90.7911 28.971 90.3987 29.3173C90.0062 29.6635 89.5694 29.8366 89.0881 29.8366C88.5846 29.8366 88.133 29.6635 87.7331 29.3173C87.3333 28.971 87.1334 28.542 87.1334 28.0302C87.1334 27.5183 87.3333 27.0893 87.7331 26.728ZM90.6504 32.6441V45.5753H87.2815V32.6441H90.6504Z" fill="#2B2B2B"/>
<path d="M109.057 32.6443V45.6357C109.057 46.84 108.739 47.9239 108.11 48.8948C107.48 49.8658 106.599 50.626 105.466 51.1906C104.333 51.7475 103.053 52.0336 101.631 52.0336C100.246 52.0336 99.0912 51.8153 98.1731 51.3787C97.2476 50.9422 96.3147 50.3024 95.3743 49.4669L97.3587 47.111C98.0028 47.7207 98.6544 48.1949 99.3134 48.5336C99.9724 48.8723 100.728 49.0379 101.572 49.0379C102.816 49.0379 103.808 48.7293 104.548 48.1045C105.289 47.4798 105.674 46.6443 105.688 45.583V43.4153C105.244 44.168 104.593 44.7776 103.719 45.2368C102.845 45.6959 101.831 45.9217 100.668 45.9217C99.5059 45.9217 98.4323 45.6207 97.4475 45.0185C96.4627 44.4164 95.6853 43.5884 95.1004 42.5422C94.5154 41.4959 94.2267 40.3217 94.2267 39.0422C94.2267 37.74 94.5302 36.5508 95.1448 35.4819C95.7593 34.4131 96.5664 33.5776 97.5808 32.9755C98.5952 32.3733 99.6688 32.0723 100.816 32.0723C101.883 32.0723 102.845 32.2604 103.719 32.6368C104.593 33.0131 105.244 33.5099 105.688 34.1196L105.962 32.6518H109.057V32.6443ZM104.2 42.369C104.911 41.8798 105.407 41.2174 105.688 40.3819V37.5669C105.407 36.754 104.904 36.0991 104.185 35.6099C103.467 35.1207 102.623 34.8723 101.661 34.8723C100.52 34.8723 99.5577 35.2561 98.7877 36.0164C98.0176 36.7841 97.6326 37.7551 97.6326 38.9368C97.6326 39.7121 97.8103 40.4121 98.1731 41.0443C98.5359 41.6766 99.0172 42.1733 99.6318 42.5422C100.246 42.911 100.92 43.0916 101.661 43.0916C102.638 43.1067 103.489 42.8583 104.2 42.369Z" fill="#2B2B2B"/>
<path d="M114.144 26.728C114.544 26.3742 114.996 26.1936 115.499 26.1936C115.98 26.1936 116.417 26.3742 116.81 26.728C117.202 27.0818 117.395 27.5183 117.395 28.0302C117.395 28.542 117.202 28.971 116.81 29.3173C116.417 29.6635 115.98 29.8366 115.499 29.8366C114.996 29.8366 114.544 29.6635 114.144 29.3173C113.744 28.971 113.544 28.542 113.544 28.0302C113.537 27.5183 113.737 27.0893 114.144 26.728ZM117.061 32.6441V45.5753H113.692V32.6441H117.061Z" fill="#2B2B2B"/>
<path d="M128.849 26.3518C127.768 26.3518 126.909 26.5926 126.28 27.0819C125.65 27.5711 125.332 28.241 125.332 29.0991C125.332 29.9346 125.724 30.6346 126.517 31.1915C127.309 31.7561 128.419 32.3055 129.841 32.855C130.922 33.2389 131.848 33.6829 132.625 34.1872C133.395 34.684 134.032 35.3614 134.535 36.2195C135.039 37.0776 135.291 38.1539 135.291 39.4636C135.291 40.6453 135.002 41.7141 134.417 42.6776C133.832 43.6335 132.995 44.4012 131.892 44.9733C130.789 45.5453 129.486 45.8313 127.983 45.8313C126.657 45.8313 125.354 45.6206 124.073 45.2066C122.792 44.7926 121.645 44.2131 120.645 43.4754L122.207 40.6905C122.948 41.2625 123.829 41.7367 124.836 42.1131C125.85 42.4894 126.783 42.6776 127.649 42.6776C128.716 42.6776 129.641 42.4141 130.448 41.8948C131.248 41.3754 131.648 40.5776 131.648 39.4937C131.648 38.6356 131.315 37.9206 130.641 37.3561C129.967 36.784 129.034 36.2647 127.827 35.798C126.583 35.3313 125.554 34.8647 124.732 34.4055C123.91 33.9464 123.199 33.3066 122.615 32.4786C122.022 31.6507 121.726 30.6195 121.726 29.3776C121.726 27.5636 122.333 26.1034 123.547 24.9894C124.762 23.8754 126.361 23.2808 128.345 23.198C129.789 23.198 131.055 23.3636 132.151 23.7023C133.247 24.041 134.261 24.5152 135.202 25.1249L133.869 27.8496C131.988 26.8485 130.315 26.3518 128.849 26.3518Z" fill="#2B2B2B"/>
<path d="M148.189 41.9701L149.721 44.5066C149.04 44.9357 148.307 45.2744 147.522 45.5303C146.738 45.7862 145.99 45.9142 145.264 45.9142C143.798 45.9142 142.532 45.6206 141.458 45.026C140.385 44.4314 139.563 43.6185 138.993 42.5797C138.423 41.541 138.134 40.3443 138.134 39.0045C138.134 37.74 138.452 36.5808 139.096 35.5195C139.74 34.4582 140.607 33.6228 141.71 32.998C142.813 32.3733 144.013 32.0647 145.316 32.0647C147.041 32.0647 148.478 32.5765 149.618 33.6077C150.758 34.6389 151.521 36.0916 151.906 37.9658L142.102 41.3303C142.443 41.8572 142.895 42.2711 143.457 42.5496C144.02 42.8357 144.642 42.9787 145.323 42.9787C146.271 42.9787 147.226 42.6475 148.189 41.9701ZM142.458 35.8884C141.784 36.641 141.451 37.6195 141.451 38.8238C141.451 39.0496 141.458 39.2228 141.48 39.3432L148.159 36.9271C147.9 36.2948 147.515 35.7755 147.019 35.369C146.515 34.9625 145.864 34.7593 145.064 34.7593C143.998 34.7593 143.132 35.1357 142.458 35.8884Z" fill="#2B2B2B"/>
<path d="M158.592 21.7302V45.5829H155.223V21.7302H158.592Z" fill="#2B2B2B"/>
<path d="M166.596 21.7302V45.5829H163.227V21.7302H166.596Z" fill="#2B2B2B"/>
<defs>
<linearGradient id="paint0_linear_1_180" x1="30.7937" y1="25.5567" x2="13.2615" y2="33.2109" gradientUnits="userSpaceOnUse">
<stop stop-color="#0283E9"/>
<stop offset="1" stop-color="#FC01CA"/>
</linearGradient>
<linearGradient id="paint1_linear_1_180" x1="66.9839" y1="-1.61588" x2="-17.8589" y2="49.2049" gradientUnits="userSpaceOnUse">
<stop stop-color="#0283E9"/>
<stop offset="1" stop-color="#FC01CA"/>
</linearGradient>
</defs>
</svg>
