<svg width="32" height="33" viewBox="0 0 32 33" fill="none" xmlns="http://www.w3.org/2000/svg">
<g clip-path="url(#clip0_1_1317)">
<path d="M26.6667 29.7707H5.33333C4.97971 29.7707 4.64057 29.6302 4.39052 29.3801C4.14048 29.1301 4 28.791 4 28.4373V4.43734C4 4.08372 4.14048 3.74458 4.39052 3.49453C4.64057 3.24448 4.97971 3.104 5.33333 3.104H26.6667C27.0203 3.104 27.3594 3.24448 27.6095 3.49453C27.8595 3.74458 28 4.08372 28 4.43734V28.4373C28 28.791 27.8595 29.1301 27.6095 29.3801C27.3594 29.6302 27.0203 29.7707 26.6667 29.7707ZM12 8.43734H9.33333V11.104C9.33333 12.8721 10.0357 14.5678 11.286 15.818C12.5362 17.0683 14.2319 17.7707 16 17.7707C17.7681 17.7707 19.4638 17.0683 20.714 15.818C21.9643 14.5678 22.6667 12.8721 22.6667 11.104V8.43734H20V11.104C20 12.1649 19.5786 13.1823 18.8284 13.9324C18.0783 14.6826 17.0609 15.104 16 15.104C14.9391 15.104 13.9217 14.6826 13.1716 13.9324C12.4214 13.1823 12 12.1649 12 11.104V8.43734Z" fill="white"/>
</g>
<defs>
<clipPath id="clip0_1_1317">
<rect width="32" height="32" fill="white" transform="translate(0 0.437256)"/>
</clipPath>
</defs>
</svg>
