<svg width="50" height="50" viewBox="0 0 50 50" fill="none" xmlns="http://www.w3.org/2000/svg">
<g clip-path="url(#clip0_1_263)">
<path d="M1.21169 14.4543L23.9597 24.7737C24.6238 25.0754 25.3748 25.0754 26.0388 24.7737L48.7869 14.4543C50.4031 13.7209 50.4031 11.2786 48.7869 10.5452L26.0398 0.22485C25.7135 0.07572 25.359 -0.00146484 25.0003 -0.00146484C24.6415 -0.00146484 24.287 0.07572 23.9607 0.22485L1.21169 10.5442C-0.404526 11.2776 -0.404526 13.7209 1.21169 14.4543ZM48.7879 23.0754L43.115 20.5041L27.3298 27.6594C26.5916 27.9944 25.8074 28.1643 24.9998 28.1643C24.1922 28.1643 23.409 27.9944 22.6697 27.6594L6.88551 20.5041L1.21169 23.0754C-0.404526 23.8079 -0.404526 26.2493 1.21169 26.9817L23.9597 37.2932C24.6238 37.594 25.3748 37.594 26.0388 37.2932L48.7879 26.9817C50.4041 26.2493 50.4041 23.8079 48.7879 23.0754ZM48.7879 35.5559L43.1365 32.9944L27.3298 40.1594C26.5916 40.4944 25.8074 40.6643 24.9998 40.6643C24.1922 40.6643 23.409 40.4944 22.6697 40.1594L6.86403 32.9944L1.21169 35.5559C-0.404526 36.2883 -0.404526 38.7297 1.21169 39.4622L23.9597 49.7737C24.6238 50.0745 25.3748 50.0745 26.0388 49.7737L48.7879 39.4622C50.4041 38.7297 50.4041 36.2883 48.7879 35.5559Z" fill="white"/>
</g>
<defs>
<clipPath id="clip0_1_263">
<rect width="50" height="50" fill="white"/>
</clipPath>
</defs>
</svg>
