<svg width="50" height="50" viewBox="0 0 50 50" fill="none" xmlns="http://www.w3.org/2000/svg">
<path d="M34.375 25H15.625V31.25H34.375V25ZM43.0664 10.2539L33.5059 0.683594C33.0664 0.244141 32.4707 0 31.8457 0H31.25V12.5H43.75V11.9043C43.75 11.2891 43.5059 10.6934 43.0664 10.2539ZM28.125 13.2812V0H8.59375C7.29492 0 6.25 1.04492 6.25 2.34375V47.6562C6.25 48.9551 7.29492 50 8.59375 50H41.4062C42.7051 50 43.75 48.9551 43.75 47.6562V15.625H30.4688C29.1797 15.625 28.125 14.5703 28.125 13.2812ZM12.5 7.03125C12.5 6.59961 12.8496 6.25 13.2812 6.25H21.0938C21.5254 6.25 21.875 6.59961 21.875 7.03125V8.59375C21.875 9.02539 21.5254 9.375 21.0938 9.375H13.2812C12.8496 9.375 12.5 9.02539 12.5 8.59375V7.03125ZM12.5 13.2812C12.5 12.8496 12.8496 12.5 13.2812 12.5H21.0938C21.5254 12.5 21.875 12.8496 21.875 13.2812V14.8438C21.875 15.2754 21.5254 15.625 21.0938 15.625H13.2812C12.8496 15.625 12.5 15.2754 12.5 14.8438V13.2812ZM37.5 42.9688C37.5 43.4004 37.1504 43.75 36.7188 43.75H28.9062C28.4746 43.75 28.125 43.4004 28.125 42.9688V41.4062C28.125 40.9746 28.4746 40.625 28.9062 40.625H36.7188C37.1504 40.625 37.5 40.9746 37.5 41.4062V42.9688ZM37.5 23.4375V32.8125C37.5 33.6758 36.8008 34.375 35.9375 34.375H14.0625C13.1992 34.375 12.5 33.6758 12.5 32.8125V23.4375C12.5 22.5742 13.1992 21.875 14.0625 21.875H35.9375C36.8008 21.875 37.5 22.5742 37.5 23.4375Z" fill="url(#paint0_linear_1_242)"/>
<defs>
<linearGradient id="paint0_linear_1_242" x1="50.3827" y1="-9.42983" x2="-18.7127" y2="22.1253" gradientUnits="userSpaceOnUse">
<stop stop-color="#0283E9"/>
<stop offset="1" stop-color="#FC01CA"/>
</linearGradient>
</defs>
</svg>
