<svg width="40" height="40" viewBox="0 0 40 40" fill="none" xmlns="http://www.w3.org/2000/svg">
<g clip-path="url(#clip0_1_374)">
<path d="M32.3617 11.1317C34.0783 12.955 35 15 35 18.315C35 24.1483 30.905 29.3767 24.95 31.9617L23.4617 29.665C29.02 26.6583 30.1067 22.7567 30.54 20.2967C29.645 20.76 28.4733 20.9217 27.325 20.815C24.3183 20.5367 21.9483 18.0683 21.9483 15C21.9483 13.4529 22.5629 11.9692 23.6569 10.8752C24.7508 9.78125 26.2346 9.16667 27.7817 9.16667C29.57 9.16667 31.28 9.98334 32.3617 11.1317ZM15.695 11.1317C17.4117 12.955 18.3333 15 18.3333 18.315C18.3333 24.1483 14.2383 29.3767 8.28333 31.9617L6.795 29.665C12.3533 26.6583 13.44 22.7567 13.8733 20.2967C12.9783 20.76 11.8067 20.9217 10.6583 20.815C7.65167 20.5367 5.28167 18.0683 5.28167 15C5.28167 13.4529 5.89625 11.9692 6.99022 10.8752C8.08418 9.78125 9.56791 9.16667 11.115 9.16667C12.9033 9.16667 14.6133 9.98334 15.695 11.1317Z" fill="#18191A"/>
</g>
<defs>
<clipPath id="clip0_1_374">
<rect width="40" height="40" fill="white" transform="translate(40 40) rotate(-180)"/>
</clipPath>
</defs>
</svg>
