<svg width="50" height="50" viewBox="0 0 50 50" fill="none" xmlns="http://www.w3.org/2000/svg">
<g clip-path="url(#clip0_1_272)">
<path d="M18.0245 25.5749C18.3402 26.9418 16.8407 27.9807 15.6741 27.2515L11.696 24.7656L6.72854 32.7151C5.43128 34.7907 6.93069 37.4985 9.37718 37.4985H14.4541C15.1013 37.4985 15.626 38.0232 15.626 38.6703V42.5766C15.626 43.2238 15.1013 43.7485 14.4541 43.7485H9.38724C2.0304 43.7485 -2.45866 35.6383 1.43724 29.4047L6.40032 21.4567L2.42327 18.9715C1.24349 18.2345 1.54769 16.4363 2.89974 16.124L13.6651 13.6387C14.506 13.4446 15.3449 13.9689 15.539 14.8096L18.0245 25.5749ZM27.6496 7.71213L31.6818 14.1649L27.7032 16.6509C26.5264 17.3861 26.8243 19.1854 28.1797 19.4984L38.945 21.9837C39.7919 22.1789 40.6262 21.648 40.819 20.8128L43.3043 10.0475C43.6165 8.69553 42.1334 7.63352 40.9539 8.37092L36.9806 10.8537L32.951 4.40042C29.2868 -1.46218 20.7236 -1.47566 17.051 4.40042L15.2968 7.2096C14.954 7.75842 15.121 8.48118 15.6699 8.82415L18.9823 10.894C19.5311 11.2369 20.2541 11.07 20.5971 10.5212L22.3511 7.71428C23.5925 5.72786 26.45 5.7928 27.6496 7.71213ZM48.5643 29.4047L45.8773 25.1015C45.5344 24.5524 44.8113 24.3853 44.2622 24.7283L40.9555 26.7947C40.4067 27.1376 40.2397 27.8606 40.5826 28.4095L43.2744 32.7173C44.5691 34.7887 43.0736 37.4986 40.6244 37.4986H31.251V32.8129C31.251 31.4249 29.5672 30.7247 28.5837 31.7081L20.7712 39.5188C20.161 40.1289 20.161 41.1183 20.7712 41.7284L28.5837 49.5399C29.5605 50.5168 31.251 49.8324 31.251 48.4349V43.7485H40.6143C47.9653 43.7485 52.4634 35.6433 48.5643 29.4047Z" fill="white"/>
</g>
<defs>
<clipPath id="clip0_1_272">
<rect width="50" height="50" fill="white"/>
</clipPath>
</defs>
</svg>
