<svg width="50" height="50" viewBox="0 0 50 50" fill="none" xmlns="http://www.w3.org/2000/svg">
<g clip-path="url(#clip0_1_251)">
<path d="M36.1111 19.4444C36.1111 11.7708 28.0295 5.55554 18.0556 5.55554C8.0816 5.55554 0 11.7708 0 19.4444C0 22.4219 1.22396 25.1649 3.29861 27.4305C2.13542 30.0521 0.217014 32.1354 0.190972 32.1614C0 32.3611 -0.0520833 32.6562 0.0607639 32.9166C0.173611 33.1771 0.416667 33.3333 0.694444 33.3333C3.87153 33.3333 6.50174 32.2656 8.3941 31.1632C11.1892 32.526 14.4965 33.3333 18.0556 33.3333C28.0295 33.3333 36.1111 27.118 36.1111 19.4444ZM46.7014 38.5416C48.776 36.2847 50 33.533 50 30.5555C50 24.7482 45.3559 19.7743 38.776 17.6996C38.8542 18.2726 38.8889 18.8542 38.8889 19.4444C38.8889 28.6371 29.5399 36.1111 18.0556 36.1111C17.1181 36.1111 16.2066 36.0416 15.3038 35.9462C18.0382 40.9375 24.4618 44.4444 31.9444 44.4444C35.5035 44.4444 38.8108 43.6458 41.6059 42.2743C43.4983 43.3767 46.1285 44.4444 49.3056 44.4444C49.5833 44.4444 49.8351 44.2795 49.9392 44.0278C50.0521 43.776 50 43.4809 49.809 43.2725C49.783 43.2465 47.8646 41.1719 46.7014 38.5416Z" fill="white"/>
</g>
<defs>
<clipPath id="clip0_1_251">
<rect width="50" height="50" fill="white"/>
</clipPath>
</defs>
</svg>
