<svg width="20" height="20" viewBox="0 0 20 20" fill="none" xmlns="http://www.w3.org/2000/svg">
<path d="M0.540428 9.68246C-0.206023 10.0741 -0.175056 10.6476 0.607525 10.9573L2.92623 11.8747C3.70946 12.1857 4.89462 12.016 5.55849 11.4979L15.6275 3.5573C16.2895 3.03665 16.3604 3.11343 15.7856 3.72891L7.82559 12.2489C7.24882 12.8625 7.41914 13.616 8.20494 13.9199L8.47656 14.0257C9.26236 14.3296 10.543 14.8399 11.3237 15.1573L13.8953 16.2044C14.6766 16.5218 15.5114 16.1476 15.7333 15.3347L19.6527 0.928264C19.874 0.115361 19.4443 -0.229801 18.6978 0.161167L0.540428 9.68246Z" fill="white"/>
<path d="M6.90366 19.114C6.85785 19.2514 8.48947 16.7514 8.48947 16.7514C8.95076 16.0469 8.68882 15.2062 7.90947 14.8875L6.13011 14.1591C5.35076 13.8404 4.97721 14.2146 5.29979 14.9933C5.29979 14.9933 6.95076 18.9727 6.90366 19.114Z" fill="white"/>
</svg>
